<mxfile host="app.diagrams.net" modified="2024-02-21T20:25:33.108Z" agent="Mozilla/5.0 (Windows NT 10.0; Win64; x64; rv:122.0) Gecko/20100101 Firefox/122.0" etag="LlOoBrHHv8s-Sg3IPMY7" version="23.1.5" type="device">
  <diagram name="Page-1" id="bV15BvsTJDbBpbY3DTvm">
    <mxGraphModel dx="934" dy="454" grid="1" gridSize="10" guides="1" tooltips="1" connect="1" arrows="1" fold="1" page="1" pageScale="1" pageWidth="850" pageHeight="1100" math="0" shadow="0">
      <root>
        <mxCell id="0" />
        <mxCell id="1" parent="0" />
        <mxCell id="gCcOP2Ut4aRzR15WRA2k-3" value="" style="rounded=0;whiteSpace=wrap;html=1;" parent="1" vertex="1">
          <mxGeometry x="40" y="40" width="160" height="240" as="geometry" />
        </mxCell>
        <mxCell id="gCcOP2Ut4aRzR15WRA2k-4" value="Login" style="rounded=1;whiteSpace=wrap;html=1;" parent="1" vertex="1">
          <mxGeometry x="60" y="110" width="120" height="60" as="geometry" />
        </mxCell>
        <mxCell id="gCcOP2Ut4aRzR15WRA2k-5" value="Browse" style="rounded=1;whiteSpace=wrap;html=1;" parent="1" vertex="1">
          <mxGeometry x="60" y="200" width="120" height="60" as="geometry" />
        </mxCell>
        <mxCell id="gCcOP2Ut4aRzR15WRA2k-6" value="System Title" style="text;html=1;align=center;verticalAlign=middle;whiteSpace=wrap;rounded=0;" parent="1" vertex="1">
          <mxGeometry x="90" y="50" width="60" height="30" as="geometry" />
        </mxCell>
        <mxCell id="gCcOP2Ut4aRzR15WRA2k-19" style="edgeStyle=orthogonalEdgeStyle;rounded=0;orthogonalLoop=1;jettySize=auto;html=1;entryX=0;entryY=0.5;entryDx=0;entryDy=0;" parent="1" source="gCcOP2Ut4aRzR15WRA2k-7" target="gCcOP2Ut4aRzR15WRA2k-16" edge="1">
          <mxGeometry relative="1" as="geometry" />
        </mxCell>
        <mxCell id="gCcOP2Ut4aRzR15WRA2k-20" value="&lt;div&gt;Patient&lt;/div&gt;" style="edgeLabel;html=1;align=center;verticalAlign=middle;resizable=0;points=[];" parent="gCcOP2Ut4aRzR15WRA2k-19" vertex="1" connectable="0">
          <mxGeometry x="-0.4239" y="-3" relative="1" as="geometry">
            <mxPoint x="14" y="-18" as="offset" />
          </mxGeometry>
        </mxCell>
        <mxCell id="gCcOP2Ut4aRzR15WRA2k-51" style="edgeStyle=orthogonalEdgeStyle;rounded=0;orthogonalLoop=1;jettySize=auto;html=1;entryX=0;entryY=0.5;entryDx=0;entryDy=0;exitX=0.5;exitY=1;exitDx=0;exitDy=0;" parent="1" source="gCcOP2Ut4aRzR15WRA2k-7" target="gCcOP2Ut4aRzR15WRA2k-50" edge="1">
          <mxGeometry relative="1" as="geometry" />
        </mxCell>
        <mxCell id="gCcOP2Ut4aRzR15WRA2k-84" value="Doctor" style="edgeLabel;html=1;align=center;verticalAlign=middle;resizable=0;points=[];" parent="gCcOP2Ut4aRzR15WRA2k-51" vertex="1" connectable="0">
          <mxGeometry x="-0.3475" y="-1" relative="1" as="geometry">
            <mxPoint as="offset" />
          </mxGeometry>
        </mxCell>
        <mxCell id="gCcOP2Ut4aRzR15WRA2k-7" value="" style="rounded=0;whiteSpace=wrap;html=1;" parent="1" vertex="1">
          <mxGeometry x="310" y="40" width="160" height="240" as="geometry" />
        </mxCell>
        <mxCell id="gCcOP2Ut4aRzR15WRA2k-8" value="" style="rounded=0;whiteSpace=wrap;html=1;" parent="1" vertex="1">
          <mxGeometry x="380" y="80" width="80" height="20" as="geometry" />
        </mxCell>
        <mxCell id="gCcOP2Ut4aRzR15WRA2k-9" value="UName" style="text;html=1;align=center;verticalAlign=middle;whiteSpace=wrap;rounded=0;" parent="1" vertex="1">
          <mxGeometry x="310" y="75" width="60" height="30" as="geometry" />
        </mxCell>
        <mxCell id="gCcOP2Ut4aRzR15WRA2k-10" value="" style="rounded=0;whiteSpace=wrap;html=1;" parent="1" vertex="1">
          <mxGeometry x="380" y="145" width="80" height="20" as="geometry" />
        </mxCell>
        <mxCell id="gCcOP2Ut4aRzR15WRA2k-11" value="PWD" style="text;html=1;align=center;verticalAlign=middle;whiteSpace=wrap;rounded=0;" parent="1" vertex="1">
          <mxGeometry x="310" y="140" width="60" height="30" as="geometry" />
        </mxCell>
        <mxCell id="gCcOP2Ut4aRzR15WRA2k-12" value="" style="shape=process;whiteSpace=wrap;html=1;backgroundOutline=1;" parent="1" vertex="1">
          <mxGeometry x="380" y="190" width="80" height="20" as="geometry" />
        </mxCell>
        <mxCell id="gCcOP2Ut4aRzR15WRA2k-13" value="User Type" style="text;html=1;align=center;verticalAlign=middle;whiteSpace=wrap;rounded=0;" parent="1" vertex="1">
          <mxGeometry x="310" y="185" width="60" height="30" as="geometry" />
        </mxCell>
        <mxCell id="gCcOP2Ut4aRzR15WRA2k-14" style="edgeStyle=orthogonalEdgeStyle;rounded=0;orthogonalLoop=1;jettySize=auto;html=1;entryX=-0.02;entryY=0.412;entryDx=0;entryDy=0;entryPerimeter=0;" parent="1" source="gCcOP2Ut4aRzR15WRA2k-4" target="gCcOP2Ut4aRzR15WRA2k-7" edge="1">
          <mxGeometry relative="1" as="geometry" />
        </mxCell>
        <mxCell id="gCcOP2Ut4aRzR15WRA2k-16" value="" style="rounded=0;whiteSpace=wrap;html=1;" parent="1" vertex="1">
          <mxGeometry x="560" y="40" width="160" height="240" as="geometry" />
        </mxCell>
        <mxCell id="gCcOP2Ut4aRzR15WRA2k-17" value="Make&lt;br&gt;&lt;div&gt;Appointment&lt;/div&gt;" style="rounded=1;whiteSpace=wrap;html=1;" parent="1" vertex="1">
          <mxGeometry x="580" y="75" width="120" height="35" as="geometry" />
        </mxCell>
        <mxCell id="gCcOP2Ut4aRzR15WRA2k-46" style="edgeStyle=orthogonalEdgeStyle;rounded=0;orthogonalLoop=1;jettySize=auto;html=1;entryX=0.5;entryY=0;entryDx=0;entryDy=0;" parent="1" source="gCcOP2Ut4aRzR15WRA2k-18" target="gCcOP2Ut4aRzR15WRA2k-45" edge="1">
          <mxGeometry relative="1" as="geometry" />
        </mxCell>
        <mxCell id="gCcOP2Ut4aRzR15WRA2k-18" value="Edit Record" style="rounded=1;whiteSpace=wrap;html=1;" parent="1" vertex="1">
          <mxGeometry x="580" y="196" width="120" height="29" as="geometry" />
        </mxCell>
        <mxCell id="gCcOP2Ut4aRzR15WRA2k-49" style="edgeStyle=orthogonalEdgeStyle;rounded=0;orthogonalLoop=1;jettySize=auto;html=1;entryX=0.5;entryY=0;entryDx=0;entryDy=0;exitX=0.5;exitY=0;exitDx=0;exitDy=0;" parent="1" source="gCcOP2Ut4aRzR15WRA2k-21" target="gCcOP2Ut4aRzR15WRA2k-16" edge="1">
          <mxGeometry relative="1" as="geometry" />
        </mxCell>
        <mxCell id="gCcOP2Ut4aRzR15WRA2k-21" value="" style="rounded=0;whiteSpace=wrap;html=1;" parent="1" vertex="1">
          <mxGeometry x="820" y="40" width="160" height="240" as="geometry" />
        </mxCell>
        <mxCell id="gCcOP2Ut4aRzR15WRA2k-22" value="&lt;font style=&quot;font-size: 8px;&quot;&gt;Showing Hospitals and doctors in &amp;lt;PAtIENt&#39;s Community&amp;gt;&lt;br&gt;&lt;/font&gt;" style="text;html=1;align=center;verticalAlign=middle;whiteSpace=wrap;rounded=0;" parent="1" vertex="1">
          <mxGeometry x="830" y="50" width="140" height="30" as="geometry" />
        </mxCell>
        <mxCell id="gCcOP2Ut4aRzR15WRA2k-23" value="" style="shape=process;whiteSpace=wrap;html=1;backgroundOutline=1;" parent="1" vertex="1">
          <mxGeometry x="870" y="85" width="100" height="20" as="geometry" />
        </mxCell>
        <mxCell id="gCcOP2Ut4aRzR15WRA2k-24" value="Hospital" style="text;html=1;align=center;verticalAlign=middle;whiteSpace=wrap;rounded=0;" parent="1" vertex="1">
          <mxGeometry x="814" y="80" width="60" height="30" as="geometry" />
        </mxCell>
        <mxCell id="gCcOP2Ut4aRzR15WRA2k-27" value="" style="shape=process;whiteSpace=wrap;html=1;backgroundOutline=1;" parent="1" vertex="1">
          <mxGeometry x="870" y="146" width="100" height="20" as="geometry" />
        </mxCell>
        <mxCell id="gCcOP2Ut4aRzR15WRA2k-28" value="Doctor" style="text;html=1;align=center;verticalAlign=middle;whiteSpace=wrap;rounded=0;" parent="1" vertex="1">
          <mxGeometry x="812" y="141" width="60" height="30" as="geometry" />
        </mxCell>
        <mxCell id="gCcOP2Ut4aRzR15WRA2k-29" value="" style="shape=process;whiteSpace=wrap;html=1;backgroundOutline=1;" parent="1" vertex="1">
          <mxGeometry x="870" y="205" width="100" height="20" as="geometry" />
        </mxCell>
        <mxCell id="gCcOP2Ut4aRzR15WRA2k-30" value="&lt;div&gt;Time&lt;/div&gt;&lt;div&gt;Slot&lt;br&gt;&lt;/div&gt;" style="text;html=1;align=center;verticalAlign=middle;whiteSpace=wrap;rounded=0;" parent="1" vertex="1">
          <mxGeometry x="812" y="200" width="60" height="30" as="geometry" />
        </mxCell>
        <mxCell id="gCcOP2Ut4aRzR15WRA2k-31" value="" style="shape=process;whiteSpace=wrap;html=1;backgroundOutline=1;" parent="1" vertex="1">
          <mxGeometry x="870" y="115" width="100" height="20" as="geometry" />
        </mxCell>
        <mxCell id="gCcOP2Ut4aRzR15WRA2k-32" value="Doc Cat." style="text;html=1;align=center;verticalAlign=middle;whiteSpace=wrap;rounded=0;" parent="1" vertex="1">
          <mxGeometry x="814" y="110" width="60" height="30" as="geometry" />
        </mxCell>
        <mxCell id="gCcOP2Ut4aRzR15WRA2k-33" value="&lt;div&gt;BooK&lt;/div&gt;" style="rounded=1;whiteSpace=wrap;html=1;" parent="1" vertex="1">
          <mxGeometry x="840" y="240" width="120" height="20" as="geometry" />
        </mxCell>
        <mxCell id="gCcOP2Ut4aRzR15WRA2k-36" style="edgeStyle=orthogonalEdgeStyle;rounded=0;orthogonalLoop=1;jettySize=auto;html=1;entryX=-0.004;entryY=0.219;entryDx=0;entryDy=0;entryPerimeter=0;" parent="1" source="gCcOP2Ut4aRzR15WRA2k-17" target="gCcOP2Ut4aRzR15WRA2k-21" edge="1">
          <mxGeometry relative="1" as="geometry" />
        </mxCell>
        <mxCell id="gCcOP2Ut4aRzR15WRA2k-40" style="edgeStyle=orthogonalEdgeStyle;rounded=0;orthogonalLoop=1;jettySize=auto;html=1;exitX=1;exitY=0.5;exitDx=0;exitDy=0;entryX=0;entryY=0.25;entryDx=0;entryDy=0;" parent="1" source="gCcOP2Ut4aRzR15WRA2k-37" target="gCcOP2Ut4aRzR15WRA2k-39" edge="1">
          <mxGeometry relative="1" as="geometry" />
        </mxCell>
        <mxCell id="gCcOP2Ut4aRzR15WRA2k-37" value="View Appointments" style="rounded=1;whiteSpace=wrap;html=1;" parent="1" vertex="1">
          <mxGeometry x="580" y="140" width="120" height="29" as="geometry" />
        </mxCell>
        <mxCell id="gCcOP2Ut4aRzR15WRA2k-42" style="edgeStyle=orthogonalEdgeStyle;rounded=0;orthogonalLoop=1;jettySize=auto;html=1;entryX=0;entryY=0.5;entryDx=0;entryDy=0;" parent="1" source="gCcOP2Ut4aRzR15WRA2k-39" target="gCcOP2Ut4aRzR15WRA2k-41" edge="1">
          <mxGeometry relative="1" as="geometry" />
        </mxCell>
        <mxCell id="gCcOP2Ut4aRzR15WRA2k-43" value="Select 1 &lt;br&gt;Appointment" style="edgeLabel;html=1;align=center;verticalAlign=middle;resizable=0;points=[];" parent="gCcOP2Ut4aRzR15WRA2k-42" vertex="1" connectable="0">
          <mxGeometry x="-0.1364" relative="1" as="geometry">
            <mxPoint y="-15" as="offset" />
          </mxGeometry>
        </mxCell>
        <mxCell id="gCcOP2Ut4aRzR15WRA2k-39" value="List All the &lt;br&gt;&lt;div&gt;Appointments&lt;/div&gt;" style="rounded=0;whiteSpace=wrap;html=1;" parent="1" vertex="1">
          <mxGeometry x="820" y="320" width="160" height="240" as="geometry" />
        </mxCell>
        <mxCell id="gCcOP2Ut4aRzR15WRA2k-41" value="&lt;div&gt;Show a particular appointment detail&lt;/div&gt;" style="rounded=0;whiteSpace=wrap;html=1;" parent="1" vertex="1">
          <mxGeometry x="1090" y="320" width="160" height="240" as="geometry" />
        </mxCell>
        <mxCell id="gCcOP2Ut4aRzR15WRA2k-44" value="Cancel Aptmt" style="rounded=0;whiteSpace=wrap;html=1;" parent="1" vertex="1">
          <mxGeometry x="1110" y="530" width="120" height="20" as="geometry" />
        </mxCell>
        <mxCell id="gCcOP2Ut4aRzR15WRA2k-45" value="&lt;div&gt;List all the patient details with an edit option&lt;/div&gt;" style="rounded=0;whiteSpace=wrap;html=1;" parent="1" vertex="1">
          <mxGeometry x="560" y="320" width="160" height="240" as="geometry" />
        </mxCell>
        <mxCell id="gCcOP2Ut4aRzR15WRA2k-50" value="" style="rounded=0;whiteSpace=wrap;html=1;" parent="1" vertex="1">
          <mxGeometry x="560" y="600" width="160" height="240" as="geometry" />
        </mxCell>
        <mxCell id="gCcOP2Ut4aRzR15WRA2k-52" value="Add Apt " style="rounded=1;whiteSpace=wrap;html=1;" parent="1" vertex="1">
          <mxGeometry x="580" y="620" width="120" height="30" as="geometry" />
        </mxCell>
        <mxCell id="gCcOP2Ut4aRzR15WRA2k-74" style="edgeStyle=orthogonalEdgeStyle;rounded=0;orthogonalLoop=1;jettySize=auto;html=1;entryX=0;entryY=0.5;entryDx=0;entryDy=0;" parent="1" source="gCcOP2Ut4aRzR15WRA2k-53" target="gCcOP2Ut4aRzR15WRA2k-73" edge="1">
          <mxGeometry relative="1" as="geometry" />
        </mxCell>
        <mxCell id="gCcOP2Ut4aRzR15WRA2k-53" value="Browse Patient Dir" style="rounded=1;whiteSpace=wrap;html=1;" parent="1" vertex="1">
          <mxGeometry x="580" y="740" width="120" height="30" as="geometry" />
        </mxCell>
        <mxCell id="gCcOP2Ut4aRzR15WRA2k-54" value="Examine Patients" style="rounded=1;whiteSpace=wrap;html=1;" parent="1" vertex="1">
          <mxGeometry x="580" y="680" width="120" height="30" as="geometry" />
        </mxCell>
        <mxCell id="gCcOP2Ut4aRzR15WRA2k-83" style="edgeStyle=orthogonalEdgeStyle;rounded=0;orthogonalLoop=1;jettySize=auto;html=1;exitX=1;exitY=0.5;exitDx=0;exitDy=0;entryX=0;entryY=0.5;entryDx=0;entryDy=0;" parent="1" source="gCcOP2Ut4aRzR15WRA2k-56" target="gCcOP2Ut4aRzR15WRA2k-82" edge="1">
          <mxGeometry relative="1" as="geometry">
            <Array as="points">
              <mxPoint x="700" y="860" />
              <mxPoint x="1010" y="860" />
              <mxPoint x="1010" y="720" />
            </Array>
          </mxGeometry>
        </mxCell>
        <mxCell id="gCcOP2Ut4aRzR15WRA2k-56" value="Edit Record" style="rounded=1;whiteSpace=wrap;html=1;" parent="1" vertex="1">
          <mxGeometry x="580" y="800" width="120" height="29" as="geometry" />
        </mxCell>
        <mxCell id="gCcOP2Ut4aRzR15WRA2k-57" value="" style="rounded=0;whiteSpace=wrap;html=1;" parent="1" vertex="1">
          <mxGeometry x="820" y="600" width="160" height="240" as="geometry" />
        </mxCell>
        <mxCell id="gCcOP2Ut4aRzR15WRA2k-58" value="Date Picker" style="shape=process;whiteSpace=wrap;html=1;backgroundOutline=1;" parent="1" vertex="1">
          <mxGeometry x="880" y="620" width="90" height="20" as="geometry" />
        </mxCell>
        <mxCell id="gCcOP2Ut4aRzR15WRA2k-59" value="Date" style="text;html=1;align=center;verticalAlign=middle;whiteSpace=wrap;rounded=0;" parent="1" vertex="1">
          <mxGeometry x="820" y="615" width="60" height="30" as="geometry" />
        </mxCell>
        <mxCell id="gCcOP2Ut4aRzR15WRA2k-60" value="" style="shape=process;whiteSpace=wrap;html=1;backgroundOutline=1;" parent="1" vertex="1">
          <mxGeometry x="880" y="665" width="90" height="15" as="geometry" />
        </mxCell>
        <mxCell id="gCcOP2Ut4aRzR15WRA2k-61" value="Start Time" style="text;html=1;align=center;verticalAlign=middle;whiteSpace=wrap;rounded=0;" parent="1" vertex="1">
          <mxGeometry x="820" y="657.5" width="60" height="30" as="geometry" />
        </mxCell>
        <mxCell id="gCcOP2Ut4aRzR15WRA2k-63" value="" style="shape=process;whiteSpace=wrap;html=1;backgroundOutline=1;" parent="1" vertex="1">
          <mxGeometry x="880" y="707.5" width="90" height="15" as="geometry" />
        </mxCell>
        <mxCell id="gCcOP2Ut4aRzR15WRA2k-64" value="End Time" style="text;html=1;align=center;verticalAlign=middle;whiteSpace=wrap;rounded=0;" parent="1" vertex="1">
          <mxGeometry x="820" y="700" width="60" height="30" as="geometry" />
        </mxCell>
        <mxCell id="gCcOP2Ut4aRzR15WRA2k-65" value="ADD" style="rounded=1;whiteSpace=wrap;html=1;" parent="1" vertex="1">
          <mxGeometry x="840" y="780" width="120" height="30" as="geometry" />
        </mxCell>
        <mxCell id="gCcOP2Ut4aRzR15WRA2k-66" style="edgeStyle=orthogonalEdgeStyle;rounded=0;orthogonalLoop=1;jettySize=auto;html=1;entryX=0.005;entryY=0.146;entryDx=0;entryDy=0;entryPerimeter=0;" parent="1" source="gCcOP2Ut4aRzR15WRA2k-52" target="gCcOP2Ut4aRzR15WRA2k-57" edge="1">
          <mxGeometry relative="1" as="geometry" />
        </mxCell>
        <mxCell id="gCcOP2Ut4aRzR15WRA2k-68" style="edgeStyle=orthogonalEdgeStyle;rounded=0;orthogonalLoop=1;jettySize=auto;html=1;entryX=-0.005;entryY=0.69;entryDx=0;entryDy=0;entryPerimeter=0;" parent="1" source="gCcOP2Ut4aRzR15WRA2k-54" target="gCcOP2Ut4aRzR15WRA2k-69" edge="1">
          <mxGeometry relative="1" as="geometry">
            <mxPoint x="820.8" y="1007.2" as="targetPoint" />
            <Array as="points">
              <mxPoint x="790" y="695" />
              <mxPoint x="790" y="1046" />
            </Array>
          </mxGeometry>
        </mxCell>
        <mxCell id="gCcOP2Ut4aRzR15WRA2k-72" style="edgeStyle=orthogonalEdgeStyle;rounded=0;orthogonalLoop=1;jettySize=auto;html=1;" parent="1" source="gCcOP2Ut4aRzR15WRA2k-69" target="gCcOP2Ut4aRzR15WRA2k-70" edge="1">
          <mxGeometry relative="1" as="geometry" />
        </mxCell>
        <mxCell id="gCcOP2Ut4aRzR15WRA2k-77" value="Select &lt;br&gt;&lt;div&gt;Patient&lt;/div&gt;" style="edgeLabel;html=1;align=center;verticalAlign=middle;resizable=0;points=[];" parent="gCcOP2Ut4aRzR15WRA2k-72" vertex="1" connectable="0">
          <mxGeometry x="-0.2158" y="1" relative="1" as="geometry">
            <mxPoint as="offset" />
          </mxGeometry>
        </mxCell>
        <mxCell id="gCcOP2Ut4aRzR15WRA2k-69" value="List All the &lt;br&gt;&lt;div&gt;Patients appointments&lt;/div&gt;&lt;div&gt;based on&lt;br&gt;selected date&lt;/div&gt;" style="rounded=0;whiteSpace=wrap;html=1;" parent="1" vertex="1">
          <mxGeometry x="820" y="880" width="160" height="240" as="geometry" />
        </mxCell>
        <mxCell id="gCcOP2Ut4aRzR15WRA2k-70" value="&lt;div&gt;List that patient&#39;s details&lt;/div&gt;&lt;div&gt;and a provision to add &lt;br&gt;&lt;/div&gt;&lt;div&gt;Vital Signs and a Note of findings&lt;/div&gt;" style="rounded=0;whiteSpace=wrap;html=1;" parent="1" vertex="1">
          <mxGeometry x="1060" y="880" width="160" height="240" as="geometry" />
        </mxCell>
        <mxCell id="gCcOP2Ut4aRzR15WRA2k-71" value="Done" style="rounded=0;whiteSpace=wrap;html=1;" parent="1" vertex="1">
          <mxGeometry x="1080" y="1090" width="120" height="20" as="geometry" />
        </mxCell>
        <mxCell id="gCcOP2Ut4aRzR15WRA2k-80" style="edgeStyle=orthogonalEdgeStyle;rounded=0;orthogonalLoop=1;jettySize=auto;html=1;entryX=0;entryY=0.5;entryDx=0;entryDy=0;" parent="1" source="gCcOP2Ut4aRzR15WRA2k-73" target="gCcOP2Ut4aRzR15WRA2k-79" edge="1">
          <mxGeometry relative="1" as="geometry" />
        </mxCell>
        <mxCell id="gCcOP2Ut4aRzR15WRA2k-81" value="Select A &lt;br&gt;Patient" style="edgeLabel;html=1;align=center;verticalAlign=middle;resizable=0;points=[];" parent="gCcOP2Ut4aRzR15WRA2k-80" vertex="1" connectable="0">
          <mxGeometry x="-0.125" relative="1" as="geometry">
            <mxPoint as="offset" />
          </mxGeometry>
        </mxCell>
        <mxCell id="gCcOP2Ut4aRzR15WRA2k-73" value="List All the &lt;br&gt;&lt;div&gt;Patients from the directory&lt;/div&gt;" style="rounded=0;whiteSpace=wrap;html=1;" parent="1" vertex="1">
          <mxGeometry x="820" y="1160" width="160" height="240" as="geometry" />
        </mxCell>
        <mxCell id="gCcOP2Ut4aRzR15WRA2k-75" value="&lt;font style=&quot;font-size: 6px;&quot;&gt;By Default Today&#39;s Date&lt;/font&gt;" style="shape=process;whiteSpace=wrap;html=1;backgroundOutline=1;" parent="1" vertex="1">
          <mxGeometry x="880" y="900" width="90" height="20" as="geometry" />
        </mxCell>
        <mxCell id="gCcOP2Ut4aRzR15WRA2k-76" value="Date" style="text;html=1;align=center;verticalAlign=middle;whiteSpace=wrap;rounded=0;" parent="1" vertex="1">
          <mxGeometry x="820" y="895" width="60" height="30" as="geometry" />
        </mxCell>
        <mxCell id="gCcOP2Ut4aRzR15WRA2k-78" value="&amp;lt;optional: add medicines&amp;gt;&amp;gt;" style="text;html=1;align=center;verticalAlign=middle;whiteSpace=wrap;rounded=0;" parent="1" vertex="1">
          <mxGeometry x="1090" y="1040" width="60" height="30" as="geometry" />
        </mxCell>
        <mxCell id="gCcOP2Ut4aRzR15WRA2k-79" value="List All the &lt;br&gt;&lt;div&gt;Patient&#39;s details&lt;/div&gt;" style="rounded=0;whiteSpace=wrap;html=1;" parent="1" vertex="1">
          <mxGeometry x="1060" y="1160" width="160" height="240" as="geometry" />
        </mxCell>
        <mxCell id="gCcOP2Ut4aRzR15WRA2k-82" value="Edit Record" style="rounded=0;whiteSpace=wrap;html=1;" parent="1" vertex="1">
          <mxGeometry x="1070" y="600" width="160" height="240" as="geometry" />
        </mxCell>
        <mxCell id="gCcOP2Ut4aRzR15WRA2k-85" value="" style="shape=process;whiteSpace=wrap;html=1;backgroundOutline=1;" parent="1" vertex="1">
          <mxGeometry x="870" y="175" width="100" height="20" as="geometry" />
        </mxCell>
        <mxCell id="gCcOP2Ut4aRzR15WRA2k-86" value="Date" style="text;html=1;align=center;verticalAlign=middle;whiteSpace=wrap;rounded=0;" parent="1" vertex="1">
          <mxGeometry x="812" y="170" width="60" height="30" as="geometry" />
        </mxCell>
        <mxCell id="Q_BoY5dDHhrMhQj-Vz4E-2" style="edgeStyle=orthogonalEdgeStyle;rounded=0;orthogonalLoop=1;jettySize=auto;html=1;entryX=0.507;entryY=-0.042;entryDx=0;entryDy=0;entryPerimeter=0;" edge="1" parent="1" source="gCcOP2Ut4aRzR15WRA2k-5">
          <mxGeometry relative="1" as="geometry">
            <mxPoint x="121.11999999999989" y="319.91999999999996" as="targetPoint" />
          </mxGeometry>
        </mxCell>
        <mxCell id="Q_BoY5dDHhrMhQj-Vz4E-14" value="" style="rounded=0;whiteSpace=wrap;html=1;" vertex="1" parent="1">
          <mxGeometry x="40" y="320" width="160" height="240" as="geometry" />
        </mxCell>
        <mxCell id="Q_BoY5dDHhrMhQj-Vz4E-16" value="" style="shape=process;whiteSpace=wrap;html=1;backgroundOutline=1;" vertex="1" parent="1">
          <mxGeometry x="90" y="365" width="100" height="20" as="geometry" />
        </mxCell>
        <mxCell id="Q_BoY5dDHhrMhQj-Vz4E-17" value="Hospital" style="text;html=1;align=center;verticalAlign=middle;whiteSpace=wrap;rounded=0;" vertex="1" parent="1">
          <mxGeometry x="34" y="360" width="60" height="30" as="geometry" />
        </mxCell>
        <mxCell id="Q_BoY5dDHhrMhQj-Vz4E-18" value="" style="shape=process;whiteSpace=wrap;html=1;backgroundOutline=1;" vertex="1" parent="1">
          <mxGeometry x="90" y="426" width="100" height="20" as="geometry" />
        </mxCell>
        <mxCell id="Q_BoY5dDHhrMhQj-Vz4E-19" value="Doctor" style="text;html=1;align=center;verticalAlign=middle;whiteSpace=wrap;rounded=0;" vertex="1" parent="1">
          <mxGeometry x="32" y="421" width="60" height="30" as="geometry" />
        </mxCell>
        <mxCell id="Q_BoY5dDHhrMhQj-Vz4E-20" value="" style="shape=process;whiteSpace=wrap;html=1;backgroundOutline=1;" vertex="1" parent="1">
          <mxGeometry x="90" y="485" width="100" height="20" as="geometry" />
        </mxCell>
        <mxCell id="Q_BoY5dDHhrMhQj-Vz4E-21" value="&lt;div&gt;Time&lt;/div&gt;&lt;div&gt;Slot&lt;br&gt;&lt;/div&gt;" style="text;html=1;align=center;verticalAlign=middle;whiteSpace=wrap;rounded=0;" vertex="1" parent="1">
          <mxGeometry x="32" y="480" width="60" height="30" as="geometry" />
        </mxCell>
        <mxCell id="Q_BoY5dDHhrMhQj-Vz4E-22" value="" style="shape=process;whiteSpace=wrap;html=1;backgroundOutline=1;" vertex="1" parent="1">
          <mxGeometry x="90" y="395" width="100" height="20" as="geometry" />
        </mxCell>
        <mxCell id="Q_BoY5dDHhrMhQj-Vz4E-23" value="Doc Cat." style="text;html=1;align=center;verticalAlign=middle;whiteSpace=wrap;rounded=0;" vertex="1" parent="1">
          <mxGeometry x="34" y="390" width="60" height="30" as="geometry" />
        </mxCell>
        <mxCell id="Q_BoY5dDHhrMhQj-Vz4E-32" style="edgeStyle=orthogonalEdgeStyle;rounded=0;orthogonalLoop=1;jettySize=auto;html=1;exitX=0.5;exitY=1;exitDx=0;exitDy=0;entryX=0.5;entryY=0;entryDx=0;entryDy=0;" edge="1" parent="1" source="Q_BoY5dDHhrMhQj-Vz4E-24" target="Q_BoY5dDHhrMhQj-Vz4E-27">
          <mxGeometry relative="1" as="geometry" />
        </mxCell>
        <mxCell id="Q_BoY5dDHhrMhQj-Vz4E-33" value="&lt;div&gt;Pass Appointment as a argument&lt;/div&gt;" style="edgeLabel;html=1;align=center;verticalAlign=middle;resizable=0;points=[];" vertex="1" connectable="0" parent="Q_BoY5dDHhrMhQj-Vz4E-32">
          <mxGeometry x="0.0165" relative="1" as="geometry">
            <mxPoint as="offset" />
          </mxGeometry>
        </mxCell>
        <mxCell id="Q_BoY5dDHhrMhQj-Vz4E-24" value="&lt;div&gt;BooK&lt;/div&gt;" style="rounded=1;whiteSpace=wrap;html=1;" vertex="1" parent="1">
          <mxGeometry x="60" y="520" width="120" height="20" as="geometry" />
        </mxCell>
        <mxCell id="Q_BoY5dDHhrMhQj-Vz4E-25" value="" style="shape=process;whiteSpace=wrap;html=1;backgroundOutline=1;" vertex="1" parent="1">
          <mxGeometry x="90" y="455" width="100" height="20" as="geometry" />
        </mxCell>
        <mxCell id="Q_BoY5dDHhrMhQj-Vz4E-26" value="Date" style="text;html=1;align=center;verticalAlign=middle;whiteSpace=wrap;rounded=0;" vertex="1" parent="1">
          <mxGeometry x="32" y="450" width="60" height="30" as="geometry" />
        </mxCell>
        <mxCell id="Q_BoY5dDHhrMhQj-Vz4E-36" style="edgeStyle=orthogonalEdgeStyle;rounded=0;orthogonalLoop=1;jettySize=auto;html=1;entryX=0;entryY=0.5;entryDx=0;entryDy=0;" edge="1" parent="1" source="Q_BoY5dDHhrMhQj-Vz4E-27" target="Q_BoY5dDHhrMhQj-Vz4E-34">
          <mxGeometry relative="1" as="geometry">
            <Array as="points">
              <mxPoint x="120" y="960" />
            </Array>
          </mxGeometry>
        </mxCell>
        <mxCell id="Q_BoY5dDHhrMhQj-Vz4E-27" value="Display all the fields in a &lt;br&gt;person class for registration" style="rounded=0;whiteSpace=wrap;html=1;" vertex="1" parent="1">
          <mxGeometry x="40" y="635" width="160" height="240" as="geometry" />
        </mxCell>
        <mxCell id="Q_BoY5dDHhrMhQj-Vz4E-29" value="&lt;div&gt;Register&lt;/div&gt;&amp;nbsp;&amp;amp; Book" style="rounded=1;whiteSpace=wrap;html=1;" vertex="1" parent="1">
          <mxGeometry x="60" y="840" width="120" height="30" as="geometry" />
        </mxCell>
        <mxCell id="Q_BoY5dDHhrMhQj-Vz4E-30" value="&lt;div align=&quot;left&quot;&gt;- Use Split Panel-&amp;gt; In the Top Panel Display &quot;Hospital Management System&lt;br&gt;and in the bottom panel use the card layout to change the screen&lt;br&gt;&lt;br&gt;- In the top pane add one &quot;Home&quot; button.&lt;br&gt;&lt;br&gt;- In every screen, there should be a title.&lt;/div&gt;" style="text;html=1;align=left;verticalAlign=middle;resizable=0;points=[];autosize=1;strokeColor=none;fillColor=none;" vertex="1" parent="1">
          <mxGeometry x="40" y="1120" width="420" height="100" as="geometry" />
        </mxCell>
        <mxCell id="Q_BoY5dDHhrMhQj-Vz4E-34" value="Now, It will take to patient controller and patient&#39;s screens" style="whiteSpace=wrap;html=1;aspect=fixed;" vertex="1" parent="1">
          <mxGeometry x="280" y="920" width="80" height="80" as="geometry" />
        </mxCell>
        <mxCell id="Q_BoY5dDHhrMhQj-Vz4E-37" value="" style="rounded=0;whiteSpace=wrap;html=1;" vertex="1" parent="1">
          <mxGeometry x="80" y="1280" width="160" height="240" as="geometry" />
        </mxCell>
        <mxCell id="Q_BoY5dDHhrMhQj-Vz4E-38" value="&lt;div&gt;Hospitals&lt;/div&gt;" style="rounded=1;whiteSpace=wrap;html=1;" vertex="1" parent="1">
          <mxGeometry x="110" y="1300" width="100" height="30" as="geometry" />
        </mxCell>
        <mxCell id="Q_BoY5dDHhrMhQj-Vz4E-39" value="&lt;div&gt;Doctors&lt;/div&gt;" style="rounded=1;whiteSpace=wrap;html=1;" vertex="1" parent="1">
          <mxGeometry x="110" y="1350" width="100" height="30" as="geometry" />
        </mxCell>
        <mxCell id="Q_BoY5dDHhrMhQj-Vz4E-40" value="Patients" style="rounded=1;whiteSpace=wrap;html=1;" vertex="1" parent="1">
          <mxGeometry x="110" y="1400" width="100" height="30" as="geometry" />
        </mxCell>
        <mxCell id="Q_BoY5dDHhrMhQj-Vz4E-41" value="Appointments" style="rounded=1;whiteSpace=wrap;html=1;" vertex="1" parent="1">
          <mxGeometry x="110" y="1450" width="100" height="30" as="geometry" />
        </mxCell>
      </root>
    </mxGraphModel>
  </diagram>
</mxfile>
